<mxfile host="app.diagrams.net" modified="2023-08-09T07:23:09.149Z" agent="Mozilla/5.0 (Macintosh; Intel Mac OS X 10_15_7) AppleWebKit/537.36 (KHTML, like Gecko) Chrome/115.0.0.0 Safari/537.36" version="21.6.7" etag="_S4W2BP5fdHCO6OLZ3Go" type="github">
  <diagram name="第 1 页" id="GLHmrQ1KvYaFcgX4xy0m">
    <mxGraphModel>
      <root>
        <mxCell id="0" />
        <mxCell id="1" parent="0" />
      </root>
    </mxGraphModel>
  </diagram>
</mxfile>
